<svg width="21" height="26" viewBox="0 0 21 26" fill="none" xmlns="http://www.w3.org/2000/svg">
<path d="M15.0552 0.518799C15.1123 0.518799 15.1694 0.518799 15.2297 0.518799C15.3697 2.24884 14.7094 3.54153 13.9068 4.47765C13.1194 5.4073 12.0411 6.30895 10.297 6.17214C10.1807 4.46688 10.8421 3.27006 11.6436 2.3361C12.3869 1.46569 13.7496 0.691157 15.0552 0.518799Z" fill="black"/>
<path d="M20.334 18.5268C20.334 18.544 20.334 18.5591 20.334 18.5752C19.8438 20.0597 19.1447 21.3319 18.2915 22.5125C17.5127 23.5844 16.5583 25.0268 14.8541 25.0268C13.3815 25.0268 12.4034 24.0799 10.8941 24.0541C9.29768 24.0282 8.41973 24.8458 6.96007 25.0516C6.7931 25.0516 6.62613 25.0516 6.46239 25.0516C5.39054 24.8965 4.52552 24.0476 3.89533 23.2828C2.0371 21.0227 0.601139 18.1034 0.333984 14.3675C0.333984 14.0013 0.333984 13.6361 0.333984 13.2698C0.447094 10.5961 1.74624 8.42227 3.47306 7.36873C4.3844 6.80857 5.63723 6.33135 7.03225 6.54464C7.63012 6.63729 8.24091 6.84196 8.7763 7.04448C9.28368 7.23946 9.91817 7.58526 10.5193 7.56694C10.9265 7.55509 11.3315 7.34288 11.7419 7.19314C12.9441 6.75902 14.1226 6.26133 15.676 6.49509C17.5429 6.77733 18.8679 7.6068 19.6866 8.88656C18.1073 9.89162 16.8588 11.4062 17.0721 13.9927C17.2617 16.3421 18.6276 17.7167 20.334 18.5268Z" fill="black"/>
</svg>
