<svg width="9" height="4" viewBox="0 0 9 4" fill="none" xmlns="http://www.w3.org/2000/svg">
<mask id="path-1-inside-1_19_3648" fill="white">
<path d="M5.00232 3.86657L8.5987 0.63992C8.75616 0.498337 8.75616 0.268949 8.5987 0.127008C8.44124 -0.0145746 8.18548 -0.0145746 8.02802 0.127008L4.717 3.09772L1.40597 0.127367C1.24851 -0.0142164 0.992752 -0.0142164 0.834892 0.127367C0.677432 0.26895 0.677432 0.498694 0.834892 0.640278L4.43124 3.86692C4.58707 4.00633 4.84685 4.00633 5.00232 3.86657Z"/>
</mask>
<path d="M5.00232 3.86657L8.5987 0.63992C8.75616 0.498337 8.75616 0.268949 8.5987 0.127008C8.44124 -0.0145746 8.18548 -0.0145746 8.02802 0.127008L4.717 3.09772L1.40597 0.127367C1.24851 -0.0142164 0.992752 -0.0142164 0.834892 0.127367C0.677432 0.26895 0.677432 0.498694 0.834892 0.640278L4.43124 3.86692C4.58707 4.00633 4.84685 4.00633 5.00232 3.86657Z" fill="#333333"/>
<path d="M5.00232 3.86657L3.6667 2.3779L3.66521 2.37924L5.00232 3.86657ZM8.5987 0.63992L9.93432 2.12859L9.93594 2.12713L8.5987 0.63992ZM8.5987 0.127008L9.93781 -1.35852L9.93594 -1.3602L8.5987 0.127008ZM8.02802 0.127008L9.36366 1.61566L9.36527 1.61421L8.02802 0.127008ZM4.717 3.09772L3.38145 4.58645L4.71708 5.78465L6.05264 4.58637L4.717 3.09772ZM1.40597 0.127367L0.0687258 1.61457L0.070419 1.61609L1.40597 0.127367ZM0.834892 0.127367L-0.500481 -1.36152L-0.502351 -1.35984L0.834892 0.127367ZM0.834892 0.640278L-0.502351 2.12748L-0.500733 2.12894L0.834892 0.640278ZM4.43124 3.86692L3.09561 5.35558L3.09777 5.35751L4.43124 3.86692ZM6.33794 5.35523L9.93432 2.12858L7.26308 -0.848745L3.6667 2.3779L6.33794 5.35523ZM9.93594 2.12713C10.9782 1.18997 10.9753 -0.423245 9.93781 -1.35852L7.25959 1.61254C6.53698 0.961143 6.53413 -0.193298 7.26146 -0.847286L9.93594 2.12713ZM9.93594 -1.3602C9.01808 -2.18551 7.60864 -2.18551 6.69078 -1.3602L9.36527 1.61421C8.76233 2.15636 7.8644 2.15636 7.26146 1.61421L9.93594 -1.3602ZM6.69238 -1.36164L3.38136 1.60908L6.05264 4.58637L9.36366 1.61565L6.69238 -1.36164ZM6.05255 1.609L2.74152 -1.36136L0.070419 1.61609L3.38145 4.58645L6.05255 1.609ZM2.74321 -1.35984C1.82439 -2.18601 0.416245 -2.18372 -0.500481 -1.36152L2.17026 1.61625C1.56926 2.15529 0.672627 2.15758 0.0687267 1.61457L2.74321 -1.35984ZM-0.502351 -1.35984C-1.54349 -0.423685 -1.54349 1.19133 -0.502351 2.12748L2.17214 -0.846928C2.89835 -0.193941 2.89835 0.961585 2.17214 1.61457L-0.502351 -1.35984ZM-0.500733 2.12894L3.09562 5.35558L5.76687 2.37827L2.17052 -0.848381L-0.500733 2.12894ZM3.09777 5.35751C4.01213 6.17549 5.42289 6.17787 6.33943 5.35389L3.66521 2.37924C3.99875 2.07938 4.38959 1.97158 4.71606 1.97144C5.04246 1.97129 5.43196 2.07865 5.76472 2.37634L3.09777 5.35751Z" fill="#333333" mask="url(#path-1-inside-1_19_3648)"/>
</svg>
