<svg width="13" height="21" viewBox="0 0 13 21" fill="none" xmlns="http://www.w3.org/2000/svg">
<path d="M12.834 1.3471C12.834 1.1998 12.7765 1.05854 12.6742 0.954389C12.5719 0.850236 12.4332 0.791724 12.2885 0.791724H9.56126C8.18794 0.72207 6.84336 1.20869 5.82132 2.14526C4.79927 3.08183 4.18284 4.3922 4.10671 5.79008V8.7891H1.37944C1.23478 8.7891 1.09604 8.84761 0.993744 8.95176C0.891452 9.05591 0.833984 9.19718 0.833984 9.34447V12.2324C0.833984 12.3797 0.891452 12.521 0.993744 12.6251C1.09604 12.7293 1.23478 12.7878 1.37944 12.7878H4.10671V20.2298C4.10671 20.3771 4.16418 20.5183 4.26647 20.6225C4.36876 20.7266 4.5075 20.7852 4.65217 20.7852H7.92489C8.06956 20.7852 8.2083 20.7266 8.31059 20.6225C8.41288 20.5183 8.47035 20.3771 8.47035 20.2298V12.7878H11.3285C11.4498 12.7896 11.5682 12.7501 11.6651 12.6757C11.7619 12.6012 11.8315 12.4961 11.8631 12.3768L12.6485 9.48887C12.6702 9.40681 12.6731 9.32077 12.6571 9.23738C12.641 9.15399 12.6063 9.07548 12.5557 9.00788C12.5051 8.94028 12.44 8.88541 12.3653 8.84748C12.2906 8.80955 12.2084 8.78957 12.1249 8.7891H8.47035V5.79008C8.49748 5.51515 8.62429 5.26038 8.82601 5.07553C9.02773 4.89068 9.28988 4.78903 9.56126 4.79041H12.2885C12.4332 4.79041 12.5719 4.7319 12.6742 4.62775C12.7765 4.52359 12.834 4.38233 12.834 4.23504V1.3471Z" fill="#4267B2"/>
</svg>
