<svg width="21" height="21" viewBox="0 0 21 21" fill="none" xmlns="http://www.w3.org/2000/svg">
<path d="M20.8341 11.0117C20.8341 10.1727 20.766 9.56045 20.6187 8.92554H11.0381V12.7124H16.6617C16.5483 13.6534 15.9361 15.0707 14.5755 16.023L14.5564 16.1498L17.5856 18.4965L17.7955 18.5174C19.7229 16.7374 20.8341 14.1183 20.8341 11.0117Z" fill="#4285F4"/>
<path d="M11.0376 20.9895C13.7927 20.9895 16.1056 20.0824 17.795 18.5178L14.575 16.0234C13.7134 16.6243 12.5569 17.0438 11.0376 17.0438C8.3392 17.0438 6.04895 15.2638 5.23254 12.8035L5.11287 12.8136L1.96307 15.2513L1.92188 15.3658C3.59987 18.6991 7.04662 20.9895 11.0376 20.9895Z" fill="#34A853"/>
<path d="M5.23306 12.8034C5.01765 12.1685 4.89298 11.4882 4.89298 10.7852C4.89298 10.0822 5.01765 9.40199 5.22173 8.76707L5.21602 8.63185L2.02675 6.15503L1.9224 6.20466C1.23082 7.58791 0.833984 9.14124 0.833984 10.7852C0.833984 12.4292 1.23082 13.9825 1.9224 15.3657L5.23306 12.8034Z" fill="#FBBC05"/>
<path d="M11.0376 4.52663C12.9537 4.52663 14.2462 5.3543 14.9832 6.04596L17.863 3.23413C16.0943 1.59014 13.7927 0.581055 11.0376 0.581055C7.04662 0.581055 3.59987 2.8713 1.92188 6.20463L5.2212 8.76704C6.04895 6.30671 8.3392 4.52663 11.0376 4.52663Z" fill="#EB4335"/>
</svg>
