<svg width="13" height="14" viewBox="0 0 13 14" fill="none" xmlns="http://www.w3.org/2000/svg">
<g clip-path="url(#clip0_19_3634)">
<path d="M9.79883 2.69092H2.29883C1.67751 2.69092 1.17383 3.25056 1.17383 3.94092V11.4409C1.17383 12.1313 1.67751 12.6909 2.29883 12.6909H9.79883C10.4201 12.6909 10.9238 12.1313 10.9238 11.4409V3.94092C10.9238 3.25056 10.4201 2.69092 9.79883 2.69092Z" stroke="black" stroke-linejoin="round"/>
<path d="M6.98633 7.27441C7.29699 7.27441 7.54883 6.99459 7.54883 6.64941C7.54883 6.30424 7.29699 6.02441 6.98633 6.02441C6.67567 6.02441 6.42383 6.30424 6.42383 6.64941C6.42383 6.99459 6.67567 7.27441 6.98633 7.27441Z" fill="black"/>
<path d="M8.86133 7.27441C9.17199 7.27441 9.42383 6.99459 9.42383 6.64941C9.42383 6.30424 9.17199 6.02441 8.86133 6.02441C8.55067 6.02441 8.29883 6.30424 8.29883 6.64941C8.29883 6.99459 8.55067 7.27441 8.86133 7.27441Z" fill="black"/>
<path d="M6.98633 9.35767C7.29699 9.35767 7.54883 9.07784 7.54883 8.73267C7.54883 8.38749 7.29699 8.10767 6.98633 8.10767C6.67567 8.10767 6.42383 8.38749 6.42383 8.73267C6.42383 9.07784 6.67567 9.35767 6.98633 9.35767Z" fill="black"/>
<path d="M8.86133 9.35767C9.17199 9.35767 9.42383 9.07784 9.42383 8.73267C9.42383 8.38749 9.17199 8.10767 8.86133 8.10767C8.55067 8.10767 8.29883 8.38749 8.29883 8.73267C8.29883 9.07784 8.55067 9.35767 8.86133 9.35767Z" fill="black"/>
<path d="M3.23633 9.35767C3.54699 9.35767 3.79883 9.07784 3.79883 8.73267C3.79883 8.38749 3.54699 8.10767 3.23633 8.10767C2.92567 8.10767 2.67383 8.38749 2.67383 8.73267C2.67383 9.07784 2.92567 9.35767 3.23633 9.35767Z" fill="black"/>
<path d="M5.11133 9.35767C5.42199 9.35767 5.67383 9.07784 5.67383 8.73267C5.67383 8.38749 5.42199 8.10767 5.11133 8.10767C4.80067 8.10767 4.54883 8.38749 4.54883 8.73267C4.54883 9.07784 4.80067 9.35767 5.11133 9.35767Z" fill="black"/>
<path d="M3.23633 11.4409C3.54699 11.4409 3.79883 11.1611 3.79883 10.8159C3.79883 10.4707 3.54699 10.1909 3.23633 10.1909C2.92567 10.1909 2.67383 10.4707 2.67383 10.8159C2.67383 11.1611 2.92567 11.4409 3.23633 11.4409Z" fill="black"/>
<path d="M5.11133 11.4409C5.42199 11.4409 5.67383 11.1611 5.67383 10.8159C5.67383 10.4707 5.42199 10.1909 5.11133 10.1909C4.80067 10.1909 4.54883 10.4707 4.54883 10.8159C4.54883 11.1611 4.80067 11.4409 5.11133 11.4409Z" fill="black"/>
<path d="M6.98633 11.4409C7.29699 11.4409 7.54883 11.1611 7.54883 10.8159C7.54883 10.4707 7.29699 10.1909 6.98633 10.1909C6.67567 10.1909 6.42383 10.4707 6.42383 10.8159C6.42383 11.1611 6.67567 11.4409 6.98633 11.4409Z" fill="black"/>
<path d="M3.04883 1.85767V2.691M9.04883 1.85767V2.691" stroke="black" stroke-linecap="round" stroke-linejoin="round"/>
<path d="M10.9238 4.77441H1.17383" stroke="black" stroke-linejoin="round"/>
</g>
<defs>
<clipPath id="clip0_19_3634">
<rect width="12" height="13.3333" fill="white" transform="translate(0.0488281 0.607666)"/>
</clipPath>
</defs>
</svg>
