<svg width="15" height="15" viewBox="0 0 15 15" fill="none" xmlns="http://www.w3.org/2000/svg">
<g clip-path="url(#clip0_19_3659)">
<circle cx="7.4502" cy="7.49854" r="5.95605" fill="white" stroke="#0A090C" stroke-width="1.5"/>
<mask id="path-2-inside-1_19_3659" fill="white">
<path d="M7.45021 5.23465C7.23433 5.23465 7.05255 5.16065 6.90488 5.01263C6.75687 4.86496 6.68286 4.68318 6.68286 4.4673C6.68286 4.25142 6.75687 4.06964 6.90488 3.92197C7.05255 3.77396 7.23433 3.69995 7.45021 3.69995C7.66609 3.69995 7.84787 3.77396 7.99554 3.92197C8.14356 4.06964 8.21756 4.25142 8.21756 4.4673C8.21756 4.68318 8.14356 4.86496 7.99554 5.01263C7.84787 5.16065 7.66609 5.23465 7.45021 5.23465ZM7.45123 11.885C7.3097 11.885 7.1888 11.8352 7.08853 11.7356C6.98861 11.6364 6.93864 11.5157 6.93864 11.3735V7.16326C6.93864 7.02104 6.98827 6.89997 7.08751 6.80005C7.18676 6.70114 7.30731 6.65169 7.44919 6.65169C7.59072 6.65169 7.71162 6.70114 7.81189 6.80005C7.91182 6.89997 7.96178 7.02104 7.96178 7.16326V11.3735C7.96178 11.5157 7.91216 11.6364 7.81291 11.7356C7.71367 11.8352 7.59311 11.885 7.45123 11.885Z"/>
</mask>
<path d="M7.45021 5.23465C7.23433 5.23465 7.05255 5.16065 6.90488 5.01263C6.75687 4.86496 6.68286 4.68318 6.68286 4.4673C6.68286 4.25142 6.75687 4.06964 6.90488 3.92197C7.05255 3.77396 7.23433 3.69995 7.45021 3.69995C7.66609 3.69995 7.84787 3.77396 7.99554 3.92197C8.14356 4.06964 8.21756 4.25142 8.21756 4.4673C8.21756 4.68318 8.14356 4.86496 7.99554 5.01263C7.84787 5.16065 7.66609 5.23465 7.45021 5.23465ZM7.45123 11.885C7.3097 11.885 7.1888 11.8352 7.08853 11.7356C6.98861 11.6364 6.93864 11.5157 6.93864 11.3735V7.16326C6.93864 7.02104 6.98827 6.89997 7.08751 6.80005C7.18676 6.70114 7.30731 6.65169 7.44919 6.65169C7.59072 6.65169 7.71162 6.70114 7.81189 6.80005C7.91182 6.89997 7.96178 7.02104 7.96178 7.16326V11.3735C7.96178 11.5157 7.91216 11.6364 7.81291 11.7356C7.71367 11.8352 7.59311 11.885 7.45123 11.885Z" fill="#0A090C"/>
<path d="M6.90488 5.01263L8.32073 3.60005L8.31746 3.59679L6.90488 5.01263ZM6.90488 3.92197L8.31747 5.33782L8.32073 5.33455L6.90488 3.92197ZM7.99554 3.92197L6.57969 5.33456L6.58296 5.33782L7.99554 3.92197ZM7.99554 5.01263L6.58296 3.59678L6.5797 3.60005L7.99554 5.01263ZM7.08853 11.7356L8.49791 10.3166L8.4979 10.3166L7.08853 11.7356ZM7.08751 6.80005L5.67571 5.38338L5.66846 5.39069L7.08751 6.80005ZM7.81189 6.80005L9.22614 5.3858L9.21638 5.37618L7.81189 6.80005ZM7.81291 11.7356L6.3987 10.3214L6.39628 10.3239L7.81291 11.7356ZM7.45021 3.23465C7.57492 3.23465 7.73464 3.25697 7.90612 3.32678C8.07888 3.39712 8.21814 3.49723 8.32073 3.60005L5.48904 6.42521C6.02534 6.96276 6.72242 7.23465 7.45021 7.23465V3.23465ZM8.31746 3.59679C8.42029 3.69938 8.5204 3.83863 8.59073 4.01139C8.66055 4.18287 8.68286 4.3426 8.68286 4.4673H4.68286C4.68286 5.1951 4.95476 5.89217 5.4923 6.42848L8.31746 3.59679ZM8.68286 4.4673C8.68286 4.592 8.66055 4.75173 8.59073 4.92321C8.5204 5.09597 8.42029 5.23523 8.31746 5.33782L5.4923 2.50613C4.95476 3.04243 4.68286 3.73951 4.68286 4.4673H8.68286ZM8.32073 5.33455C8.21814 5.43738 8.07888 5.53749 7.90612 5.60782C7.73464 5.67764 7.57492 5.69995 7.45021 5.69995V1.69995C6.72242 1.69995 6.02534 1.97185 5.48904 2.50939L8.32073 5.33455ZM7.45021 5.69995C7.32551 5.69995 7.16578 5.67764 6.9943 5.60782C6.82154 5.53749 6.68229 5.43738 6.5797 5.33455L9.41139 2.50939C8.87508 1.97185 8.17801 1.69995 7.45021 1.69995V5.69995ZM6.58296 5.33782C6.48014 5.23523 6.38003 5.09597 6.30969 4.92321C6.23988 4.75173 6.21756 4.592 6.21756 4.4673H10.2176C10.2176 3.73951 9.94567 3.04243 9.40812 2.50613L6.58296 5.33782ZM6.21756 4.4673C6.21756 4.3426 6.23988 4.18287 6.30969 4.01139C6.38003 3.83863 6.48014 3.69938 6.58296 3.59679L9.40812 6.42848C9.94567 5.89217 10.2176 5.1951 10.2176 4.4673H6.21756ZM6.5797 3.60005C6.68229 3.49723 6.82154 3.39712 6.9943 3.32678C7.16578 3.25697 7.32551 3.23465 7.45021 3.23465V7.23465C8.17801 7.23465 8.87508 6.96276 9.41139 6.42521L6.5797 3.60005ZM7.45123 9.88502C7.62003 9.88502 7.81559 9.91582 8.01604 9.99838C8.21655 10.081 8.37749 10.197 8.49791 10.3166L5.67916 13.1547C6.15474 13.627 6.78254 13.885 7.45123 13.885V9.88502ZM8.4979 10.3166C8.62127 10.4391 8.74002 10.6027 8.82412 10.8059C8.90805 11.0087 8.93864 11.2055 8.93864 11.3735H4.93864C4.93864 12.0426 5.19706 12.6759 5.67917 13.1547L8.4979 10.3166ZM8.93864 11.3735V7.16326H4.93864V11.3735H8.93864ZM8.93864 7.16326C8.93864 7.32954 8.90858 7.52391 8.82646 7.72428C8.74418 7.92503 8.62788 8.08726 8.50656 8.20941L5.66846 5.39069C5.19303 5.86939 4.93864 6.49879 4.93864 7.16326H8.93864ZM8.49929 8.21669C8.37626 8.3393 8.21305 8.45644 8.01136 8.53917C7.81017 8.62169 7.61532 8.65169 7.44919 8.65169V4.65169C6.78555 4.65169 6.15511 4.90567 5.67573 5.3834L8.49929 8.21669ZM7.44919 8.65169C7.28215 8.65169 7.08816 8.62144 6.88885 8.53992C6.68935 8.45832 6.52843 8.3433 6.4074 8.22391L9.21638 5.37618C8.73979 4.90607 8.11349 4.65169 7.44919 4.65169V8.65169ZM6.39768 8.21426C6.27615 8.09273 6.1588 7.93049 6.07554 7.72874C5.99239 7.52723 5.96178 7.33128 5.96178 7.16326H9.96178C9.96178 6.49441 9.70378 5.86351 9.2261 5.38583L6.39768 8.21426ZM5.96178 7.16326V11.3735H9.96178V7.16326H5.96178ZM5.96178 11.3735C5.96178 11.2072 5.99183 11.012 6.07472 10.8103C6.15783 10.6081 6.27553 10.4446 6.3987 10.3214L9.22713 13.1499C9.707 12.67 9.96178 12.0382 9.96178 11.3735H5.96178ZM6.39628 10.3239C6.51867 10.201 6.68189 10.0829 6.88459 9.99914C7.08692 9.91557 7.28335 9.88502 7.45123 9.88502V13.885C8.11928 13.885 8.75121 13.6274 9.22955 13.1474L6.39628 10.3239Z" fill="#0A090C" mask="url(#path-2-inside-1_19_3659)"/>
</g>
<defs>
<clipPath id="clip0_19_3659">
<rect width="14" height="14" fill="white" transform="translate(0.744141 0.79248)"/>
</clipPath>
</defs>
</svg>
