<svg width="13" height="7" viewBox="0 0 13 7" fill="none" xmlns="http://www.w3.org/2000/svg">
<path d="M1.12682 0.443822C1.29091 0.291501 1.51343 0.205933 1.74545 0.205933C1.97747 0.205933 2.19999 0.291501 2.36407 0.443822L6.69532 4.4657L11.0266 0.443822C11.1916 0.295818 11.4126 0.213923 11.6421 0.215774C11.8715 0.217625 12.0909 0.303075 12.2532 0.453719C12.4154 0.604363 12.5074 0.808148 12.5094 1.02118C12.5114 1.23422 12.4232 1.43946 12.2638 1.5927L7.31395 6.18901C7.14986 6.34133 6.92734 6.4269 6.69532 6.4269C6.46331 6.4269 6.24079 6.34133 6.0767 6.18901L1.12682 1.5927C0.962787 1.44033 0.870636 1.2337 0.870636 1.01826C0.870636 0.802813 0.962787 0.596188 1.12682 0.443822Z" fill="#ECE354"/>
</svg>
