<svg width="17" height="17" viewBox="0 0 17 17" fill="none" xmlns="http://www.w3.org/2000/svg">
<path d="M14.9017 1.04376L8.33482 7.61069L1.76789 1.04376C1.60994 0.899223 1.40233 0.821201 1.18828 0.825943C0.974242 0.830686 0.770283 0.917828 0.618896 1.06922C0.467508 1.2206 0.380367 1.42456 0.375624 1.6386C0.370881 1.85264 0.448904 2.06026 0.593437 2.21821L7.15703 8.78514L0.591771 15.3504C0.511563 15.4268 0.447445 15.5185 0.403186 15.6201C0.358927 15.7217 0.33542 15.8311 0.334048 15.9419C0.332676 16.0527 0.353466 16.1626 0.395196 16.2653C0.436925 16.3679 0.498753 16.4612 0.577044 16.5396C0.655334 16.618 0.748509 16.6799 0.851089 16.7218C0.95367 16.7637 1.06359 16.7846 1.17438 16.7834C1.28517 16.7822 1.3946 16.7588 1.49624 16.7147C1.59788 16.6706 1.68967 16.6066 1.76622 16.5265L8.33482 9.96125L14.9017 16.5282C15.0597 16.6727 15.2673 16.7507 15.4814 16.746C15.6954 16.7413 15.8994 16.6541 16.0507 16.5027C16.2021 16.3513 16.2893 16.1474 16.294 15.9333C16.2988 15.7193 16.2207 15.5117 16.0762 15.3537L9.50927 8.7868L16.0762 2.21821C16.1564 2.14177 16.2205 2.05007 16.2648 1.94849C16.309 1.84692 16.3325 1.73752 16.3339 1.62673C16.3353 1.51594 16.3145 1.40599 16.2728 1.30335C16.231 1.20071 16.1692 1.10745 16.0909 1.02905C16.0126 0.950647 15.9195 0.888687 15.8169 0.846812C15.7143 0.804937 15.6044 0.783991 15.4936 0.785206C15.3828 0.786421 15.2734 0.809773 15.1717 0.853888C15.0701 0.898002 14.9783 0.961991 14.9017 1.04209V1.04376Z" fill="white"/>
</svg>
